<?xml version="1.0" standalone="no"?>
<!DOCTYPE svg PUBLIC "-//W3C//DTD SVG 1.1//EN" "http://www.w3.org/Graphics/SVG/1.1/DTD/svg11.dtd" >
<svg xmlns="http://www.w3.org/2000/svg">
<metadata>
Created by FontForge 20120731 at Fri Sep 26 16:26:17 2014
 By Ads
</metadata>
<defs>
<font id="iconfont" horiz-adv-x="1024" >
  <font-face 
    font-family="iconfont"
    font-weight="500"
    font-stretch="normal"
    units-per-em="1024"
    panose-1="2 0 6 3 0 0 0 0 0 0"
    ascent="812"
    descent="-212"
    x-height="792"
    bbox="6 -161.01 1017 792"
    underline-thickness="50"
    underline-position="-100"
    unicode-range="U+0078-E642"
  />
<missing-glyph horiz-adv-x="374" 
d="M34 0v682h272v-682h-272zM68 34h204v614h-204v-614z" />
    <glyph glyph-name=".notdef" horiz-adv-x="374" 
d="M34 0v682h272v-682h-272zM68 34h204v614h-204v-614z" />
    <glyph glyph-name=".null" horiz-adv-x="0" 
 />
    <glyph glyph-name="nonmarkingreturn" horiz-adv-x="341" 
 />
    <glyph glyph-name="x" unicode="x" horiz-adv-x="1001" 
d="M281 543q-27 -1 -53 -1h-83q-18 0 -36.5 -6t-32.5 -18.5t-23 -32t-9 -45.5v-76h912v41q0 16 -0.5 30t-0.5 18q0 13 -5 29t-17 29.5t-31.5 22.5t-49.5 9h-133v-97h-438v97zM955 310v-52q0 -23 0.5 -52t0.5 -58t-10.5 -47.5t-26 -30t-33 -16t-31.5 -4.5q-14 -1 -29.5 -0.5
t-29.5 0.5h-32l-45 128h-439l-44 -128h-29h-34q-20 0 -45 1q-25 0 -41 9.5t-25.5 23t-13.5 29.5t-4 30v167h911zM163 247q-12 0 -21 -8.5t-9 -21.5t9 -21.5t21 -8.5q13 0 22 8.5t9 21.5t-9 21.5t-22 8.5zM316 123q-8 -26 -14 -48q-5 -19 -10.5 -37t-7.5 -25t-3 -15t1 -14.5
t9.5 -10.5t21.5 -4h37h67h81h80h64h36q23 0 34 12t2 38q-5 13 -9.5 30.5t-9.5 34.5q-5 19 -11 39h-368zM336 498v228q0 11 2.5 23t10 21.5t20.5 15.5t34 6h188q31 0 51.5 -14.5t20.5 -52.5v-227h-327z" />
    <glyph glyph-name="uniE600" unicode="&#xe600;" 
d="M800 672h-576q-40 0 -68 -28t-28 -68v-512q0 -40 28 -68t68 -28h32v-97q0 -21 19 -29q6 -3 13 -3q4 0 7.5 1t7 2.5t6.5 4.5l139 121h352q40 0 68 28t28 68v512q0 40 -28 68t-68 28zM832 64q0 -13 -9.5 -22.5t-22.5 -9.5h-364q-6 0 -11.5 -2t-9.5 -6l-95 -83v59
q0 13 -9.5 22.5t-22.5 9.5h-64q-13 0 -22.5 9.5t-9.5 22.5v512q0 13 9.5 22.5t22.5 9.5h576q13 0 22.5 -9.5t9.5 -22.5v-512zM704 480h-384q-13 0 -22.5 -9.5t-9.5 -22.5t9.5 -22.5t22.5 -9.5h384q13 0 22.5 9.5t9.5 22.5t-9.5 22.5t-22.5 9.5zM704 224h-384
q-13 0 -22.5 -9.5t-9.5 -22.5t9.5 -22.5t22.5 -9.5h384q13 0 22.5 9.5t9.5 22.5t-9.5 22.5t-22.5 9.5z" />
    <glyph glyph-name="uniE601" unicode="&#xe601;" 
d="M425 -161q-164 -1 -263 98t-99 254q0 68 26 133t68.5 114.5t94.5 86t107 55.5q92 30 187 29q9 0 16.5 -4.5t12 -12t4.5 -16.5q-1 -14 -10 -23t-23 -9q-28 1 -56 -2t-55.5 -9t-54.5 -15q-31 -10 -61.5 -28t-58.5 -41.5t-52 -52.5t-42 -61.5t-28 -69.5t-10 -74
q0 -128 80 -208t217 -80q46 1 86.5 7t69 16.5t53 23t39.5 25.5t25.5 25t15.5 20.5t5 12.5q0 5 -19 31q-11 15 -17 24.5t-13.5 28.5t-8 35t7 37.5t25.5 40.5q24 26 49.5 39t51.5 13t40.5 -2.5t37.5 -8.5q14 -4 20 -6q2 8 2.5 17.5t-3 25.5t-9 32.5t-17 36.5t-27.5 40
q-6 6 -7.5 14.5t1.5 17t10 13.5q11 9 24 7.5t22 -11.5q33 -40 51.5 -85t19 -79t-8.5 -61q-8 -16 -21 -25t-29 -9t-46 9q-11 3 -17 4.5t-15.5 3.5t-16 2t-15.5 -1.5t-16 -5t-16 -10t-17 -15.5q-13 -14 -14.5 -26t4 -24t21.5 -34q6 -8 9 -13t8 -13t7.5 -14t4.5 -14t2 -16
q0 -12 -6.5 -28t-20.5 -34.5t-34.5 -36.5t-50.5 -35.5t-65.5 -30.5t-82.5 -20.5t-99 -7.5zM377 161q-42 0 -53 26q-4 10 -2 21.5t11 20.5q10 11 16 22.5t7.5 19t3.5 20.5q2 11 3.5 18t5 17.5t10 20.5t15.5 19q28 25 66.5 22.5t69.5 -31.5q36 -33 36 -74q0 -35 -27 -59
q-22 -22 -54.5 -36.5t-59.5 -20.5t-48 -6zM454 325q-9 0 -16 -6q-11 -10 -15 -37q-1 -11 -2.5 -18t-6.5 -19t-13 -21q29 3 60.5 18.5t37.5 34.5q1 2 0.5 6.5t-2 9.5t-4.5 9.5t-7 7.5q-16 15 -32 15zM577 359q-3 7 -6.5 12.5t-8.5 10t-10 7.5t-12 7q-8 4 -13.5 10t-6.5 10
l-2 5q-1 5 -0.5 10.5t2.5 10.5t6 10q23 29 46 51q39 37 144.5 117.5t140.5 80.5q16 3 29 -14q7 -10 7 -23q0 -49 -189 -246l-23 -23q-42 -40 -63 -50q-8 -3 -15 -3t-12 2.5t-8 6t-5 6.5zM596 436q4 -3 7 -6t5 -5.5t4 -4.5q12 9 25 22q46 42 117 126q-92 -69 -138 -112
q-11 -10 -20 -20z" />
    <glyph glyph-name="uniE602" unicode="&#xe602;" 
d="M512 736q-73 0 -141.5 -23t-123.5 -64.5t-96.5 -96.5t-64 -123t-22.5 -141t22.5 -141.5t64 -123.5t96.5 -96.5t123.5 -64t141.5 -22.5q91 0 174 35.5t143 95.5t95.5 143t35.5 174q0 61 -16 119t-45 107t-70.5 90.5t-90.5 70t-107 45t-119 16.5zM512 672q104 0 192.5 -52
t139.5 -140l-2 1q-3 1 -5 1h-104q-13 0 -22.5 -9.5t-9.5 -23t9.5 -22.5t22.5 -9h17l-140 -285l-67 136l73 149h39q13 0 22.5 9t9.5 22.5t-9.5 23t-22.5 9.5h-103q-13 0 -22.5 -9.5t-9.5 -23t9.5 -22.5t22.5 -9h23l-53 -107l-52 107h3q4 0 8.5 1t8 3t6.5 5t5 6.5t3 7.5t1 9
q0 13 -9.5 22.5t-22.5 9.5h-103q-4 0 -8 -1.5t-7.5 -3.5t-6.5 -5t-5.5 -6.5t-3.5 -7.5t-1 -8q0 -24 23 -31l9 -1h33l86 -174l-55 -111l-140 285q12 1 20.5 10t8.5 22t-9.5 22.5t-22.5 9.5h-104q-1 0 -7 -2q51 88 139.5 140t192.5 52zM512 -96q-104 0 -192.5 51.5t-140 140
t-51.5 192.5q0 77 30 148q9 -18 29 -18h41l187 -381q2 -4 6.5 -4t6.5 4l82 165l81 -165q2 -4 6.5 -4t6.5 4l188 381h45q20 0 29 18q30 -71 30 -148q0 -104 -51.5 -192.5t-140 -140t-192.5 -51.5z" />
    <glyph glyph-name="uniE603" unicode="&#xe603;" 
d="M736 64q-13 0 -22.5 -9.5t-9.5 -22.5v-37q0 -27 -31 -27h-462q-6 0 -10 2.5t-6.5 7.5t-2.5 11v661q0 4 1 8t3.5 7t6 5t7.5 2h366v-96q0 -13 8.5 -22.5t21.5 -9.5h98v-64q0 -13 9.5 -22.5t22.5 -9.5t22.5 9.5t9.5 22.5v109l-156 147h-402q-35 0 -58.5 -25t-23.5 -61v-661
q0 -18 6.5 -33.5t17.5 -27t26.5 -18t32.5 -6.5h462q31 0 53 13.5t32 34t10 43.5v37q0 13 -9.5 22.5t-22.5 9.5zM640 622l14 -14h-14v14zM285 480h192q13 0 22.5 9.5t9.5 22.5q0 7 -2.5 12.5t-6.5 10t-10 7t-13 2.5h-192q-13 0 -22.5 -9.5t-9.5 -22.5q0 -4 1 -8.5t3.5 -8
t5.5 -6.5t6.5 -5t7.5 -3t8 -1zM285 288h256q13 0 22.5 9.5t9.5 22.5t-9.5 22.5t-22.5 9.5h-256q-13 0 -22.5 -9.5t-9.5 -22.5t9.5 -22.5t22.5 -9.5zM996 447l-55 55q-10 10 -25.5 14t-30.5 0t-26 -14l-232 -233l-33 -109h-309q-13 0 -22.5 -9.5t-9.5 -22.5q0 -7 2.5 -12.5
t7 -10t10.5 -7t12 -2.5h343h2h3q2 -1 4 -1l127 37l232 233q7 6 11 14.5t5.5 17.5t0 17.5t-5.5 17t-11 15.5zM730 188l-67 -20l20 67l140 140l47 -47zM915 374l-47 46l32 32l47 -46z" />
    <glyph glyph-name="uniE604" unicode="&#xe604;" 
d="M687 631q-28 0 -87 -32q-20 -11 -31.5 -16.5t-28.5 -11.5t-30 -6q-25 0 -84 32q-62 34 -93 34q-65 0 -123.5 -50.5t-97 -126.5t-60.5 -163t-22 -163t22 -121q30 -60 90 -60q18 0 36.5 5t32.5 11t32.5 18.5t29 21t30.5 24.5q23 19 35 29t35 25t41.5 22.5t43.5 13.5t52 6
q22 0 45.5 -6t41 -13.5t41.5 -22.5t36 -25l38 -28q36 -27 55.5 -40.5t51 -27t59.5 -13.5q60 0 89 60q23 46 23 121q0 76 -22.5 163t-60.5 163.5t-96.5 126.5t-123.5 50zM910 36q-12 -25 -32 -25q-18 0 -41 11t-39 22t-47 35q-34 26 -53.5 39.5t-52.5 32.5t-66 27.5t-69 8.5
q-41 0 -77 -9t-69.5 -28.5t-52 -33.5t-49.5 -39q-28 -23 -42.5 -34t-36.5 -21.5t-41 -10.5q-20 0 -32 24q-3 7 -5.5 14.5t-4.5 16t-3.5 18.5t-2 21t-0.5 23q0 32 5 68.5t14 73t22 73.5t29 69.5t35.5 61t40.5 49t45 32.5t48 12q10 0 24.5 -6.5t38 -19.5t37 -19.5t36 -13.5
t41.5 -7q20 0 43.5 7t38 14t38.5 21q45 24 57 24q38 0 75 -29t66 -76t51.5 -104.5t34.5 -117.5t12 -112q-1 -60 -16 -92zM330 492q-27 0 -52.5 -10.5t-43.5 -29t-28.5 -43.5t-10.5 -52q0 -56 39.5 -96t95.5 -40t95.5 40t39.5 96t-39.5 95.5t-95.5 39.5zM330.5 285
q-29.5 0 -50.5 21t-21 50.5t20.5 50.5t50.5 21t50.5 -21t20.5 -50.5t-20.5 -50.5t-50 -21zM553 353.5q0 -19.5 13.5 -33.5t33 -14t33 14t13.5 33.5t-13.5 33t-33 13.5t-33 -13.5t-13.5 -33zM636 266q0 -8 2.5 -15t7 -12.5t10 -10t12.5 -7t15 -2.5q13 0 23.5 6.5t17 17
t6.5 23.5q0 19 -14 33t-33 14q-13 0 -23.5 -6.5t-17 -17t-6.5 -23.5zM636 444q0 -10 4 -18.5t10 -14.5t15 -10t18 -4q13 0 23.5 6.5t17 17t6.5 23.5q0 19 -14 33t-33 14q-13 0 -23.5 -6.5t-17 -17t-6.5 -23.5zM723 353q0 -9 3.5 -18t10 -15t15 -10t17.5 -4q7 0 13 2t11 5
t9.5 7t7.5 9.5t4.5 11.5t1.5 12q0 10 -3.5 18.5t-10 14.5t-15 10t-18.5 4q-12 0 -23 -6.5t-17 -17t-6 -23.5z" />
    <glyph glyph-name="uniE605" unicode="&#xe605;" 
d="M960 570q0 41 -29 71.5t-67 30.5h-704q-38 0 -67 -30.5t-29 -71.5v-154h64v-416q0 -40 28 -68t68 -28h576q40 0 68 28t28 68v416h64v154zM832 0q0 -13 -9.5 -22.5t-22.5 -9.5h-576q-13 0 -22.5 9.5t-9.5 22.5v416h640v-416zM896 480h-768v90q0 14 10 26t22 12h704
q12 0 22 -12t10 -26v-90zM353 288h318q13 0 22.5 9.5t9.5 22.5t-9.5 22.5t-22.5 9.5h-318q-13 0 -22.5 -9.5t-9.5 -22.5t9.5 -22.5t22.5 -9.5z" />
    <glyph glyph-name="uniE606" unicode="&#xe606;" 
d="M865 208l-1 1v1q45 41 70.5 98.5t25.5 120.5q0 120 -80.5 205t-194.5 85q-95 0 -172 -66l-1 1q-76 65 -173 65q-75 0 -138 -39t-100 -105.5t-37 -145.5q0 -65 26.5 -123.5t74.5 -99.5q-19 -23 -18 -54t21 -53q9 -9 20.5 -14.5t25.5 -7.5q2 -30 20 -49q10 -10 22 -15.5
t26 -7.5q3 -29 20 -48q19 -20 50 -23q2 -13 6.5 -24.5t13.5 -20.5q11 -12 26 -18.5t32 -6.5q34 0 57 25l29 30l35 -37q11 -12 25.5 -18t31 -6t31 6t25.5 18q9 10 14 22t7 26q14 1 26 6.5t21 15.5q18 19 21 49q28 4 45 23q20 20 22 52q27 5 42 22q20 21 21.5 50.5t-14.5 53.5
q-1 2 -4 6zM896 429q0 -50 -20.5 -95t-56.5 -77l-236 242q12 22 -6 39q-9 9 -22.5 8.5t-22.5 -9.5l-81 -86q-10 -11 -20 0q-4 3 -5 8t0 10t5 9l104 110h1v1q62 66 149 66q34 0 66.5 -11.5t58.5 -32.5t45.5 -48.5t30 -62t10.5 -71.5zM215 167l112 119q5 5 11 5q2 0 4 -0.5
t4 -1.5t4 -3q3 -3 4 -7.5t0 -9t-4 -7.5l-112 -119q-5 -5 -11.5 -5t-11.5 5t-5 12.5t5 11.5zM281 96l112 119q1 1 2.5 2t2.5 1l4 2h2q7 0 12 -5q3 -4 4 -8t0 -8.5t-4 -8.5l-112 -118q-12 -12 -23 0q-10 12 0 24zM349 25l112 119q1 2 3 3t4 1.5t4 0.5t4 -0.5t4 -1.5t3 -3
q2 -2 3.5 -5.5t1.5 -6.5t-1.5 -6.5t-3.5 -5.5l-112 -119q-5 -5 -11.5 -5t-10.5 5q-10 12 0 24zM418 -67q-3 3 -4 7.5t0 9t4 7.5l113 119q4 5 11 5q2 0 4 -0.5t4 -1.5t3 -3q3 -3 4 -7.5t0 -9t-4 -7.5l-112 -119q-11 -12 -23 0zM816 142q-10 -11 -20 0q-9 9 -22.5 9.5
t-22.5 -8.5q-7 -6 -9.5 -14.5t-0.5 -16.5t8 -14q0 -1 1 -1v-1l2 -2q5 -5 5 -13t-5 -13q-2 -2 -4 -3t-3.5 -1.5t-2.5 -0.5q-3 0 -5.5 1t-4.5 4q-6 6 -14.5 8.5t-16.5 0.5t-15 -8q-15 -15 -8 -35l2 -4q1 -2 2.5 -3.5t2.5 -3.5q5 -5 5 -13.5t-5 -13.5q-5 -4 -10 -5q-8 2 -10 5
h-1v1q-9 9 -22 9.5t-23 -8.5t-10 -22.5t9 -22.5q5 -6 5 -14t-5 -13q-3 -3 -5.5 -4.5t-5 -1.5t-5 1.5t-4.5 4.5l-38 40l40 42q22 23 22 56t-22 56q-10 10 -23 16t-27 7q-4 28 -20 45q-18 18 -47 22q-3 30 -21 49q-16 17 -45 22q-2 30 -21 49q-23 24 -58 24t-57 -24l-72 -76
q-38 32 -59.5 78t-21.5 97q0 93 62 159.5t149 66.5q35 0 67 -12t60 -34l-82 -88q-15 -15 -20 -36t0 -42t20 -36q23 -25 56.5 -25t56.5 25l43 45l276 -284q10 -13 0 -26z" />
    <glyph glyph-name="uniE607" unicode="&#xe607;" 
d="M219 485l88 -64q3 -3 7.5 -3t7.5 3l3 3l66 -66l52 51l-66 66l3 3q3 3 3 8t-3 8l-64 88l-127 87l-4 2q-2 1 -4 1t-4.5 -1t-3.5 -2l-10 -10l-31 -31q-7 -8 0 -16zM910 62l-207 207l-169 -170l206 -207q19 -18 45 -18t44 18l81 81q18 18 18 44t-18 45zM785 -62l-161 161
l79 79l147 -147l15 -13zM659 297q54 -17 111 -2.5t97 54.5q29 29 45 67.5t16.5 78t-15.5 79.5l-18 45l-144 -144q-2 -2 -5 -3.5t-6 -2t-6 0t-6 2t-5 3.5l-26 25q-2 3 -3.5 5.5t-1.5 5.5v6q0 3 1.5 6t3.5 5l145 145l-45 18q-39 15 -79 14.5t-79 -16.5t-67 -44
q-42 -42 -56 -98t3 -111l-153 -153q-54 16 -111 2t-97 -54q-45 -45 -57.5 -106t10.5 -120l18 -45l145 145q5 5 13.5 5t14.5 -5l25 -26q6 -6 6 -14t-6 -14l-144 -144l45 -18q37 -15 78 -15q86 0 147 61q41 41 55 97.5t-3 111.5zM439 139q8 -20 10.5 -41.5t-1.5 -42.5
t-14.5 -40t-25.5 -35q-42 -41 -104 -42l68 68q25 25 25 59q0 9 -1.5 17t-4.5 15.5t-8 14.5t-11 12l-25 26q-24 24 -59.5 24t-58.5 -24l-69 -68q0 61 43 103q31 31 75 39.5t84 -8.5l20 -8l212 212l-8 20q-17 41 -9 84.5t40 74.5q42 43 102 43h1l-68 -68q-24 -25 -24 -59.5
t24 -59.5l26 -25q24 -24 59 -24t59 24l68 68q1 -61 -42 -104q-31 -31 -75 -39.5t-84 8.5l-20 9l-212 -213z" />
    <glyph glyph-name="uniE608" unicode="&#xe608;" 
d="M958 289q0 72 -22.5 140t-63 122.5t-95 96t-122 65t-139.5 24.5h-2h-2h-1h-1q-91 0 -174 -35.5t-143 -95.5t-95.5 -143t-35.5 -174q0 -73 22.5 -141.5t64 -123.5t96.5 -96.5t123.5 -64t141.5 -22.5h1h1h2h2q72 1 139.5 24.5t122 65t95 96t63 122.5t22.5 140zM767 320
q-3 82 -18 150q43 14 80 32q55 -82 63 -182h-125zM703 320h-161v119q38 1 74.5 5t70.5 11q14 -64 16 -135zM542 503v166q40 -11 73 -50.5t54 -101.5q-60 -12 -127 -14zM478 667v-164q-65 2 -124 13q44 126 124 151zM478 439v-119h-157q2 72 16 134q66 -13 141 -15zM257 320
h-130q8 100 64 182q39 -20 83 -33q-15 -69 -17 -149zM257 256q3 -81 18 -149q-45 -13 -83 -33q-56 82 -65 182h130zM321 256h157v-119q-75 -2 -141 -15q-14 62 -16 134zM478 73v-162q-79 25 -123 149q58 11 123 13zM542 -91v164q17 0 33 -1l32 -4q16 -1 31.5 -3.5t30.5 -5.5
q-22 -61 -54.5 -100t-72.5 -50zM542 137v119h161q-2 -71 -17 -135q-33 7 -69.5 11t-74.5 5zM767 256h125q-8 -100 -64 -182q-37 19 -79 32q2 11 4.5 23t4.5 24t3.5 24.5t2.5 25.5l2 26q1 13 1 27zM788 553q-25 -11 -56 -21q-10 28 -21.5 52.5t-25.5 45.5q8 -4 16 -8.5
t16 -9.5t15.5 -10.5t14.5 -11t14 -11.5t13 -13zM341 633q-29 -43 -49 -102q-16 5 -31 10.5t-29 11.5q23 25 50.5 45t58.5 35zM233 23q28 13 60 22q10 -29 22 -54t26 -46q-61 30 -108 78zM685 -52q27 41 46 96q30 -9 55 -21q-22 -23 -47.5 -42t-53.5 -33z" />
    <glyph glyph-name="uniE609" unicode="&#xe609;" 
d="M960 -118v-42h-896v42q0 36 25.5 63t63.5 42t83 31.5t83 31.5t63.5 41.5t25.5 61.5v19v24q-52 57 -69 127q-7 3 -13.5 9.5t-12 15t-9.5 18.5q-10 22 -8 50.5t17 47.5v1q-2 18 -3 30t0 38t5 46.5t15 45t28 42.5q61 67 153 69q48 -1 87 -20t67 -49q60 -65 45 -202v-1
q10 -13 14 -30.5t2.5 -34.5t-7.5 -33q-6 -15 -15 -26.5t-21 -16.5q-9 -41 -29 -73.5t-40 -53.5v-17v-13v-15q0 -60 87 -99q11 -5 118 -44q102 -36 128 -80q13 -21 13 -46z" />
    <glyph glyph-name="uniE60A" unicode="&#xe60a;" 
d="M958 608h-893l447 -326zM582 189q-29 -27 -69 -27q-9 0 -18.5 2t-18 5t-16.5 8t-15 12l-381 291v-448q0 -26 18.5 -45t45.5 -19h767q27 0 46 17t19 43v449z" />
    <glyph glyph-name="uniE60B" unicode="&#xe60b;" 
d="M512 738q-61 0 -119 -16t-107 -45t-90.5 -70.5t-70.5 -90.5t-45 -107t-16 -119q0 -73 22.5 -141.5t64 -123.5t96.5 -96.5t123.5 -64t141.5 -22.5q91 0 174 35.5t143 95.5t95.5 143t35.5 174t-35.5 174t-95.5 143t-143 95.5t-174 35.5zM512 -102q-38 0 -75 7q54 15 105 42
t99.5 71.5t75.5 98.5l17 38q49 134 -31 253q-26 40 -67 75q2 -3 5.5 -9t12.5 -24t15.5 -36.5t12.5 -44t6 -47.5q1 -5 1 -12.5t-3 -29.5t-10 -42t-25 -45.5t-45 -43.5q-48 -35 -113 -50t-130.5 -11t-112.5 12t-91 20q-39 80 -39 170q0 135 83 241q12 -58 33 -114t42 -94
t40 -58q101 -109 207 -83q15 4 28 10.5t22.5 14t18 17t14 18.5t10.5 18t8 16l4 14q2 6 3 10l1 3q9 42 6 84.5t-8.5 70t-7.5 30.5l-15 5q2 -27 2.5 -52t-1 -43.5t-4 -35t-6 -27t-6 -18.5t-4.5 -11l-2 -4q-10 -21 -22.5 -36t-24 -23t-23.5 -12t-21.5 -4.5t-17 0.5t-11.5 3
l-4 1q-17 9 -30.5 22.5t-21.5 27t-14 31.5t-8 29t-3.5 26.5t-1.5 16.5v7q-1 41 8 92t29.5 105t48.5 92q20 2 41 2q77 0 148 -29q-21 -18 -52 -47.5t-51 -49.5l-20 -20q-34 -32 -56.5 -65t-30.5 -57.5t-11 -44.5t-2 -30l2 -10q5 -28 15.5 -41.5t20.5 -14t21.5 6t15.5 10
t6 6.5q57 58 59 184v12q-11 -2 -21.5 -6.5t-15.5 -8.5l-5 -4q-1 -38 -14.5 -73t-26.5 -51l-13 -16q-6 -6 -11.5 -8.5t-9.5 -1.5t-7 3t-5 4l-1 2q-2 3 -2.5 6t0 5.5t2 5t3.5 4.5t3.5 3t2.5 2h1q20 17 29 43t9 43q0 7 2 12.5t4 7.5l2 1q19 14 39.5 27t31.5 18l12 6q15 8 37 14
t41.5 9.5t37 5.5t28.5 3l10 1q19 -1 34 -0.5t31 1.5q99 -111 99 -260q0 -154 -105 -267q-103 -111 -253 -124q-17 -1 -34 -1z" />
    <glyph glyph-name="uniE60C" unicode="&#xe60c;" 
d="M512 736q-185 0 -316.5 -131.5t-131.5 -316.5t131.5 -316.5t316.5 -131.5t316.5 131.5t131.5 316.5t-131.5 316.5t-316.5 131.5zM193 384q0 39 28 67t67.5 28t67.5 -28t28 -67q0 -20 -7.5 -37.5t-20.5 -30.5t-30.5 -20.5t-37.5 -7.5q-26 0 -48 13t-34.5 35t-12.5 48z
M512 -48q-97 0 -177.5 51t-122.5 136h600q-42 -85 -122.5 -136t-177.5 -51zM737.5 288q-39.5 0 -67.5 28t-28 67.5t28 67.5t67.5 28t67.5 -28t28 -67.5t-28 -67.5t-67.5 -28z" />
    <glyph glyph-name="uniE60D" unicode="&#xe60d;" 
d="M279 208q-72 0 -124 -51.5t-52 -124t52 -124.5t124.5 -52t124 52t51.5 124q0 29 -8.5 56t-25 48.5t-38 38t-48.5 25t-56 8.5zM279 -80q-46 0 -79 33t-33 79.5t33 79t79.5 32.5t79 -32.5t32.5 -79.5q0 -30 -15 -56t-40.5 -41t-56.5 -15zM745 208q-73 0 -124.5 -51.5
t-51.5 -124.5q0 -35 14 -68t37.5 -56.5t56 -37.5t68.5 -14q73 0 124.5 52t51.5 124q0 48 -23.5 88.5t-64.5 64t-88 23.5zM745 -80q-47 0 -79.5 33t-32.5 79q0 31 15 56.5t40.5 40.5t56.5 15q46 0 79 -32.5t33 -79.5q0 -30 -15 -56t-41 -41t-56 -15zM864 689l-351 -359
l-352 359q-11 12 -24.5 2t-5.5 -25l381 -547h1v0l381 547q8 15 -5.5 25t-24.5 -2z" />
    <glyph glyph-name="uniE60E" unicode="&#xe60e;" 
d="M512.5 33q79.5 0 135.5 56.5t56 136t-56 135.5t-135.5 56t-136 -56t-56.5 -135.5t56.5 -136t136 -56.5zM512 353q53 0 90.5 -37.5t37.5 -90.5t-37.5 -90.5t-90.5 -37.5t-90.5 37.5t-37.5 90.5t37.5 90.5t90.5 37.5zM768 225q0 -106 -75 -181t-181 -75t-181 75t-75 181
q0 29 9 63h-201v-320q0 -26 19 -45t45 -19h768q26 0 45 19t19 45v320h-200q2 -11 4 -20.5t3 -20.5t1 -22zM896 544h-768q-26 0 -45 -19t-19 -45v-128h227q34 59 92.5 94t128.5 35t129 -35t92 -94h227v128q0 26 -19 45t-45 19zM896 609q0 26 -18.5 44.5t-44.5 18.5h-130
q-26 0 -44.5 -18.5t-18.5 -44.5v-1h256v1z" />
    <glyph glyph-name="uniE60F" unicode="&#xe60f;" 
d="M896 672h-448q-26 0 -45 -19t-19 -45v-320q0 -26 19 -45t45 -19h256l128 -128v128h64q26 0 45 19t19 45v320q0 26 -19 45t-45 19zM320 288v128h-192q-26 0 -45 -19t-19 -45v-320q0 -26 19 -45t45 -19h64v-128l128 128h256q26 0 45 19t19 45v128h-192q-53 0 -90.5 37.5
t-37.5 90.5z" />
    <glyph glyph-name="uniE610" unicode="&#xe610;" 
d="M724 396l-171 171l-372 -373l172 -172zM806 475q9 10 15 21.5t7.5 24t0 24.5t-7.5 23.5t-15 21.5l-57 57q-8 8 -17.5 13.5t-19.5 8t-20.5 2.5t-20.5 -2.5t-19.5 -8t-17.5 -13.5l-37 -37l172 -172zM865 -31h-581l24 8l-172 172l-71 -212q-2 -6 -2 -11t1.5 -8.5t3.5 -6
t5.5 -4t6.5 -2t6 -0.5h6h5h2h766q14 0 23 9.5t9 22.5t-9 22.5t-23 9.5z" />
    <glyph glyph-name="uniE611" unicode="&#xe611;" 
d="M320 288v-320q0 -26 19 -45t45 -19h256q27 0 45.5 19t18.5 45v320h170q14 0 20 16t-5 27l-360 397q-5 5 -10.5 6.5t-11.5 0t-10 -6.5l-362 -398q-11 -11 -5.5 -26.5t20.5 -15.5h170z" />
    <glyph glyph-name="uniE612" unicode="&#xe612;" 
d="M728 88q-14 13 -31.5 22t-36 12.5t-37.5 3.5q-20 -1 -40 4t-37.5 15t-32.5 24l-1 1q-46 46 -43 109v14q-2 63 44 108l2 3q46 46 107 44q52 -2 92.5 27t49.5 89q10 64 -27 110q-40 48 -102 50.5t-105 -41.5q-14 -13 -22.5 -31t-12.5 -36t-3 -37q1 -20 -4 -40t-15 -37.5
t-25 -32.5l-1 -1q-46 -46 -108 -44q-40 2 -74.5 -15t-53.5 -54q-23 -39 -17.5 -86.5t39.5 -81.5q8 -7 17 -13t19 -11q3 -1 7 -3q6 -3 12 -4q24 -8 50 -7q63 1 108 -44l2 -2q46 -46 44 -108q-2 -51 27 -92t89 -50q65 -9 110 28q48 40 50.5 102t-40.5 105z" />
    <glyph glyph-name="uniE613" unicode="&#xe613;" 
d="M137 601q21 21 47 35t53.5 21t56.5 7t56.5 -7t54 -21t47.5 -35l59 -57l59 57q32 31 74 47t84 16t84 -16t74 -47q48 -46 65 -108.5t0 -125t-65 -109.5l-375 -350l-374 350q-74 71 -74 171.5t74 171.5z" />
    <glyph glyph-name="uniE614" unicode="&#xe614;" 
d="M799 573l-91 -92q-38 38 -88.5 59t-105.5 21q-114 0 -194.5 -80t-80.5 -194h107l-170 -184l-170 184h104q0 110 54 203t147 147t203 54q54 0 106.5 -14.5t97 -41t81.5 -62.5zM1017 286l-171 183l-169 -183h106q0 -56 -21.5 -107t-58.5 -87.5t-87.5 -58.5t-106.5 -22
q-114 0 -194 81l-91 -92q55 -56 129 -87t156 -31q110 0 203 54t147 147t54 203h104z" />
    <glyph glyph-name="uniE615" unicode="&#xe615;" 
d="M747 275q-16 3 -20.5 10t-1.5 13l4 5q35 64 -7 110q-15 15 -39 20.5t-47.5 1.5t-45 -10.5t-35 -12.5t-13.5 -7q-10 -3 -17 -4.5t-10.5 0t-5.5 3.5t-2 8.5t1 10.5t3 14t3 16q0 18 -2.5 32.5t-11.5 30.5t-24 24.5t-42.5 8t-63.5 -14.5q-27 -9 -54.5 -26.5t-50 -37
t-44 -41.5t-38 -41.5t-28.5 -35.5t-19 -25l-6 -9q-22 -32 -36.5 -64t-20.5 -55t-8.5 -42t-2.5 -28l1 -10q0 -53 21 -97t56 -73.5t81 -49t94.5 -28t98.5 -8.5q60 1 121.5 12.5t121.5 34.5t107.5 63t69.5 92q10 23 14.5 45t4 39t-5 33t-12 27.5t-17 22t-19 17.5t-19.5 12.5
t-18 8.5t-15 5zM401.5 -81.5q-120.5 -0.5 -205.5 61t-84 149t86.5 149t206 62t205.5 -61t84 -148.5t-86.5 -149t-206 -62.5zM339.5 236q-62.5 -11 -98.5 -55.5t-24.5 -96t63.5 -80t114 -17t98 55.5t25 95.5t-63 80t-114.5 17.5zM326 17q-19 -1 -36 5.5t-27.5 19.5
t-11.5 29.5t7.5 31t24 23.5t34.5 11t36 -5t27.5 -20t11.5 -29q3 -36 -34 -56q-15 -8 -32 -10zM419 117.5q-11 -4.5 -21 0t-14 16.5q-2 4 -2 8.5t1 9t3.5 8.5t5.5 7t8 5t10.5 2t10.5 -2t8.5 -6.5t5.5 -9.5q4 -12 -0.5 -23t-15.5 -15.5zM806 416q8 1 14.5 7.5t6.5 15.5v2
q1 30 -6 53t-20 35.5t-28.5 21t-31.5 10.5t-29 2.5t-21 -0.5l-9 -1q-6 -1 -11.5 -4.5t-8 -9.5t-1.5 -13q1 -10 8.5 -16t17.5 -5q32 6 51 1t28 -18t12 -26t2 -23l-1 -10q1 -10 9 -16.5t18 -5.5zM768 705q-52 7 -120 -13l-2 -1l-1 -1q-1 0 -1 -1q-11 -4 -17 -14t-5 -22
q1 -10 6.5 -17.5t14 -11.5t17.5 -3l27 10l4 1q19 2 34 2t43.5 -3.5t55.5 -21t49 -46.5q33 -58 22 -116q0 -2 -1 -5t-2 -12.5t-1 -16.5q1 -7 4.5 -12.5t8.5 -9.5t11.5 -5.5t13.5 -0.5q4 0 7.5 1.5t6.5 3t5.5 4.5t5 6.5t4 7.5t2.5 10q32 162 -80 242q-50 36 -112 45z" />
    <glyph glyph-name="uniE616" unicode="&#xe616;" 
d="M256 416h512v-132h-512v132zM256 224h512v-64h-512v64zM256 96h512v-64h-512v64zM832 672h-640q-26 0 -45 -19t-19 -45v-640q0 -26 19 -45t45 -19h640q26 0 45 19t19 45v640q0 26 -19 45t-45 19zM640 608h64v-64h-64v64zM512 608h64v-64h-64v64zM832 -32h-640v512h640
v-512zM832 544h-64v64h64v-64z" />
    <glyph glyph-name="uniE617" unicode="&#xe617;" 
d="M924 -32l-164 164q72 100 72 222q0 105 -51.5 193.5t-140 139.5t-192.5 51q-78 0 -149 -30t-122.5 -81.5t-82 -123t-30.5 -149.5q0 -104 51.5 -192.5t140 -140t192.5 -51.5q122 0 222 71l164 -164q9 -9 25 -10.5t26 8.5l45 45q16 16 0 41q-3 4 -6 7zM128 354
q0 65 25.5 124.5t68.5 102.5t102 68t124 25q87 0 160.5 -42.5t116.5 -116.5t43 -161q0 -65 -25.5 -124t-68 -102t-102 -68.5t-124.5 -25.5q-87 0 -160.5 43t-116.5 117t-43 160z" />
    <glyph glyph-name="uniE618" unicode="&#xe618;" 
d="M887 313q-26 108 -117 175.5t-204 67.5h-246v116q0 8 -8 11.5t-14 -2.5l-230 -180q-2 -2 -3 -5.5t0 -6.5t3 -6l231 -179q6 -6 14 -3t8 11l-1 116h246q71 0 127 -42t70 -108q13 -60 -9 -114.5t-69.5 -87t-105.5 -32.5h-99q-13 0 -22.5 -9.5t-9.5 -22.5v-64
q0 -13 9.5 -22.5t22.5 -9.5h99q58 0 113 21.5t96 59t69.5 87.5t35.5 108t-6 121z" />
    <glyph glyph-name="uniE619" unicode="&#xe619;" 
d="M957 -40l-418 729q-6 11 -16.5 14.5t-21 -0.5t-15.5 -14l-418 -730q-8 -15 0.5 -29t25.5 -14h836q17 0 26 14.5t1 29.5zM568 194q0 -15 -7 -27t-19 -19t-26 -7h-8q-22 0 -37 15.5t-15 37.5v233q0 14 7 26t19 19t26 7h8q14 0 26 -7t19 -19t7 -26v-233zM541 -27h-58
q-12 0 -20 8t-8 20v55q0 5 1.5 9t4 7.5t6 6t7.5 4t9 1.5h58q5 0 9 -1.5t7.5 -4t6 -6t4 -7.5t1.5 -9v-55q0 -8 -3.5 -14.5t-10 -10t-14.5 -3.5z" />
    <glyph glyph-name="uniE61A" unicode="&#xe61a;" 
d="M829 617q-64 63 -145.5 97t-171.5 34t-171.5 -34t-145.5 -97q-86 -86 -116.5 -201.5t0 -231t116.5 -201.5q64 -63 145.5 -97t171.5 -34q30 0 59 4t57.5 11.5t55.5 18.5t52 25.5t48.5 32.5t44.5 39q51 52 83.5 116t42 132.5t0 137t-42 132.5t-83.5 116zM784 572
q69 -69 96 -161t8 -185.5t-81 -167.5l-539 539q106 87 244 87q26 0 51 -3.5t49 -9.5t47 -16t44.5 -22.5t41.5 -27.5t39 -33zM240 28q-70 71 -96.5 165t-5.5 189t86 169l540 -540q-108 -95 -252 -95q-31 0 -61 4.5t-58 14t-55 23t-51.5 31.5t-46.5 39z" />
    <glyph glyph-name="uniE61B" unicode="&#xe61b;" 
d="M504 721l-435 -411q-4 -3 -4.5 -7t0.5 -7.5t4.5 -6t7.5 -2.5l115 1v-352q0 -13 9.5 -22.5t22.5 -9.5h160v288q0 13 9.5 22.5t22.5 9.5h192q13 0 22.5 -9.5t9.5 -22.5v-288h160q13 0 22.5 9.5t9.5 22.5v352h115q9 0 12 8.5t-4 14.5l-435 410q-8 7 -16 0z" />
    <glyph glyph-name="uniE61C" unicode="&#xe61c;" 
d="M767 -63v-33h-703v33q0 24 15 43t39 31t52.5 22.5t57.5 21t52.5 22.5t38.5 30t15 42v15v19q-41 45 -54 100q-18 8 -28 34q-7 16 -5.5 39t13.5 37v1v1q-2 11 -2.5 18.5t-0.5 23.5t2 29t5.5 29t11.5 31t19 27q14 15 31.5 26.5t40.5 19t48 8.5q73 -2 121 -54q46 -51 35 -158
v-1v-1q12 -14 13.5 -36.5t-6.5 -39.5q-9 -26 -28 -34q-13 -55 -54 -100q-1 -21 -1 -35q0 -27 20.5 -47.5t50.5 -31.5t65 -24t65.5 -25t50.5 -33.5t20 -49.5zM771 137q0 3 0.5 7t0.5 9v8q28 31 37 69q13 6 20 24q12 31 -6 52v1q2 17 2.5 30.5t-5.5 38t-21 40.5q-33 36 -83 38
q-36 -1 -65 -22q-5 -4 -9.5 -7.5t-8.5 -8.5q-32 -35 -24 -109v-1q-17 -21 -6 -52q3 -8 7.5 -13.5t10.5 -9.5h1l1 -1q9 -38 37 -69v-8v-7v-8q0 -18 -13 -32q12 -4 16 -6q27 -9 42 -15t40 -18t40 -24.5t29 -32t19 -41.5h126v22q0 23 -19.5 39.5t-47 26t-55 18.5t-47 24.5
t-19.5 37.5z" />
    <glyph glyph-name="uniE61D" unicode="&#xe61d;" 
d="M224 -96h-128q-13 0 -22.5 9.5t-9.5 22.5v512q0 13 9.5 22.5t22.5 9.5h128q13 0 22.5 -9.5t9.5 -22.5v-512q0 -13 -9.5 -22.5t-22.5 -9.5zM544 -96h-128q-13 0 -22.5 9.5t-9.5 22.5v704q0 13 9.5 22.5t22.5 9.5h128q13 0 22.5 -9.5t9.5 -22.5v-704q0 -13 -9.5 -22.5
t-22.5 -9.5zM864 -96h-128q-13 0 -22.5 9.5t-9.5 22.5v320q0 13 9.5 22.5t22.5 9.5h128q13 0 22.5 -9.5t9.5 -22.5v-320q0 -13 -9.5 -22.5t-22.5 -9.5z" />
    <glyph glyph-name="uniE61E" unicode="&#xe61e;" 
d="M836 352h-64v131q0 105 -75 179t-184 74q-105 0 -179 -74t-74 -179v-131h-64q-27 0 -45.5 -19t-18.5 -45v-384q0 -26 18.5 -45t45.5 -19h640q26 0 45 19t19 45v384q0 26 -19 45t-45 19zM324 483q0 79 56.5 134t138.5 55q78 0 133.5 -55.5t55.5 -133.5v-131h-384v131z
M580 -32q0 -13 -5 -25t-13.5 -20.5t-20.5 -13.5t-25 -5q-17 0 -32 8.5t-23.5 23.5t-8.5 32v256q0 17 8.5 32t23.5 23.5t32 8.5q26 0 45 -19t19 -45v-256z" />
    <glyph glyph-name="uniE61F" unicode="&#xe61f;" 
d="M512 736q-122 0 -225 -60t-163 -163t-60 -225t60 -225t163 -163t225 -60t225 60t163 163t60 225t-60 225t-163 163t-225 60zM549 -4q-3 -3 -6 -5.5t-6 -4.5t-6.5 -3.5t-6.5 -2.5l-8 -2q-3 -1 -7 -1.5t-8 -0.5q-27 0 -46 20q-9 10 -14 22t-5 26q0 28 19 47.5t46 19.5
q28 0 47.5 -19.5t19.5 -47.5q-1 -28 -19 -48zM684 392.5q-7 -22.5 -23 -45.5q-9 -14 -43 -46q-37 -35 -42 -45q-7 -16 -12 -34t-7 -32t-2 -25.5t0.5 -18t-0.5 -6.5h-114v41q1 58 22 97t65 80q45 42 50 50q9 15 9 33q0 25 -20 42q-21 17 -55 17q-17 0 -31 -4.5t-26 -15.5
q-6 -6 -11.5 -19.5t-8.5 -23.5l-2 -10h-100q-3 -1 2 28q7 47 40 89q10 14 26 24.5t35 17.5t40 10.5t42 3.5q7 0 14.5 -0.5t14.5 -1.5t13.5 -2t13 -3t12.5 -4t11.5 -4.5t11.5 -5.5q9 -5 17.5 -11t16 -13.5t14 -16t12.5 -18.5q7 -13 12 -26t7.5 -27t2.5 -29q0 -23 -7 -45.5z
" />
    <glyph glyph-name="uniE620" unicode="&#xe620;" 
d="M512 736q-122 0 -225 -60t-163 -163t-60 -225t60 -225t163 -163t225 -60t225 60t163 163t60 225t-60 225t-163 163t-225 60zM786 392l-337 -337q-6 -6 -14 -6t-14 6l-183 183q-6 6 -6 14t6 14l46 45q5 6 13 6t14 -6l124 -123l278 277q6 6 14 6t14 -6l45 -45q6 -6 6 -14
t-6 -14z" />
    <glyph glyph-name="uniE621" unicode="&#xe621;" 
d="M491 587l-184 -171h-83q-13 0 -22.5 -9.5t-9.5 -22.5v-128q0 -9 4.5 -16t11.5 -11.5t16 -4.5h83l184 -174q6 -5 13.5 -2t7.5 12v518q0 8 -7.5 11.5t-13.5 -2.5zM805 411q-4 8 -8.5 16.5t-9.5 16t-10.5 15t-11.5 14.5t-13 13q-34 33 -77 51q-8 3 -16 0t-11 -11t0.5 -15.5
t10.5 -11.5q12 -5 23.5 -11t22 -14t19.5 -17q28 -27 44 -62q8 -18 12 -37.5t4 -38.5q0 -40 -16 -76q-16 -35 -44 -62.5t-65 -42.5q-5 -2 -8 -6.5t-4 -9.5t1 -11q3 -5 8 -8.5t11 -3.5q4 0 8 1q43 18 77 51q17 16 30 35t23 40q19 45 19 93t-19 92zM678 276q9 21 9 44t-9 44
t-25 36q-8 8 -17.5 14t-19.5 10q-5 2 -10.5 1.5t-9.5 -4t-6 -8.5q-2 -3 -2 -6t0.5 -6t2.5 -6t4.5 -5t5.5 -3q6 -3 12.5 -7t11.5 -9q10 -10 16 -23q3 -7 4.5 -14t1.5 -14q0 -3 -0.5 -6t-1 -5.5t-1 -5.5t-1.5 -5.5t-2 -5.5q-2 -4 -4.5 -8t-5.5 -8t-7 -7l-6 -6q-4 -3 -8.5 -5.5
t-8.5 -4.5q-4 -1 -7 -4t-4.5 -6.5t-1.5 -7.5t2 -8q5 -13 18 -13q2 0 4 0.5t4 1.5q10 4 19.5 10t17.5 14q16 16 25 36z" />
    <glyph glyph-name="uniE622" unicode="&#xe622;" 
d="M829 605q-42 42 -93 71.5t-107.5 44.5t-116.5 15t-116.5 -15t-107.5 -44.5t-93 -71.5q-86 -86 -116.5 -201.5t0 -231t116.5 -201.5q42 -42 93 -71.5t107.5 -44.5t116.5 -15q45 0 88 8.5t83.5 25t77 41.5t68.5 56q43 43 72.5 95.5t44 107.5t14.5 114t-14.5 114t-44 107.5
t-72.5 95.5zM784 16q-55 -54 -125 -83t-147 -29t-147 29t-125 83q-73 74 -99.5 173t0 198t99.5 173q55 54 125 83t147 29q51 0 99.5 -13t92 -38t80.5 -61q112 -113 112 -272t-112 -272zM704 320h-160v160q0 13 -9.5 22.5t-22.5 9.5t-22.5 -9.5t-9.5 -22.5v-160h-160
q-13 0 -22.5 -9.5t-9.5 -22.5t9.5 -22.5t22.5 -9.5h160v-160q0 -13 9.5 -22.5t22.5 -9.5t22.5 9.5t9.5 22.5v160h160q13 0 22.5 9.5t9.5 22.5t-9.5 22.5t-22.5 9.5z" />
    <glyph glyph-name="uniE623" unicode="&#xe623;" 
d="M320 286.5q0 -79.5 56 -136t136 -56.5t136 56.5t56 136t-56 135.5t-136 56t-136 -56t-56 -135.5z" />
    <glyph glyph-name="uniE624" unicode="&#xe624;" 
d="M398 340q2 -31 -14.5 -54t-41 -24.5t-43 19.5t-19.5 53q-1 12 1.5 24t7.5 21.5t11.5 17t15.5 11.5t19 5q16 0 30 -9t23 -26t10 -38zM508 460q1 -31 -15 -54t-41 -25q-16 -1 -30 8.5t-23 26.5t-10 37.5t6 38.5t20 29t29 12q25 1 43.5 -20.5t20.5 -52.5zM648 448
q-2 -20 -11.5 -36.5t-24 -25.5t-30.5 -7q-25 3 -40 26.5t-11.5 55t23 51.5t44 17.5t39.5 -26t11 -55.5zM744 317q-3 -31 -22.5 -51.5t-44 -18t-39.5 26.5t-12 55t22.5 51.5t44 18t39.5 -26.5t12 -55zM693 82q-5 -11 -12.5 -19.5t-16.5 -13t-19.5 -7t-20.5 -3t-20 0t-18 2
t-14.5 3t-10.5 2.5l-4 1q-4 2 -11.5 3.5t-30.5 3.5t-42 -4q-20 -5 -41 -6.5t-33 -0.5h-11q-53 -1 -68 68q-4 16 -1 31t8.5 26.5t14 21.5t16 16t13.5 11t7 6t12.5 11t26 26t24.5 33q13 21 35.5 33t52 4t51.5 -44q10 -14 23.5 -29.5t26 -27.5t23 -22t17.5 -15l6 -5
q2 -2 5 -4.5t9 -12.5t9.5 -21.5t2.5 -30t-9 -37.5zM586 114h-40l-8 5q-2 2 -2 5v89h-25v-98q1 -3 2 -7.5t9 -11.5t22 -7h67v124h-25v-99zM462 213h-35q-4 0 -10.5 -2t-20 -14t-19.5 -30q-4 -27 6 -50q12 -28 43 -28h61v165l-25 1v-42zM462 114h-27q-19 2 -25 24q-4 12 2 28
q7 22 21 22h29v-74z" />
    <glyph glyph-name="uniE625" unicode="&#xe625;" 
d="M462 213h-35q-4 0 -10.5 -2t-20 -14t-18.5 -30q-4 -11 -1.5 -25t3.5 -17t3 -8q2 -4 5.5 -9t14 -12t23.5 -7h61v165l-25 1v-42zM462 114h-26h-2l-1 0.5t-2.5 1t-3.5 1.5t-3.5 2t-3.5 3l-4 4q-2 2 -3.5 5.5t-2.5 6.5q-3 12 2 28q8 22 22 22h28v-74zM587 114h-40
q-1 0 -2.5 0.5t-4.5 3.5t-3 6v89h-25v-98q0 -3 1 -7.5t9.5 -11.5t21.5 -7h68v124h-25v-99zM512 736q-122 0 -225 -60t-163 -163t-60 -225t60 -225t163 -163t225 -60t225 60t163 163t60 225t-60 225t-163 163t-225 60zM598 530q24 -3 39 -26.5t12 -55t-22.5 -51.5t-44 -17.5
t-39.5 26t-12 55.5q2 20 12 36.5t24.5 25t30.5 7.5zM445 533q10 0 19 -3.5t16.5 -10t13.5 -15.5t9.5 -20.5t4.5 -23.5q1 -20 -6 -38t-20 -29t-29 -12t-30 8.5t-23 26.5t-10 38q-1 15 3 29.5t11.5 25t18 17t22.5 7.5zM280 334q-1 12 1.5 24t7.5 21.5t12 17t16 11.5t18 5
q16 0 30.5 -9t23 -26t9.5 -38q2 -31 -14 -54t-41 -25q-12 0 -23 5t-19.5 15t-14 23.5t-6.5 29.5zM693 81.5q-8 -19.5 -25 -30t-35.5 -11.5t-35.5 0.5t-28 4.5l-11 3q-4 2 -11.5 3.5t-31 3.5t-42.5 -4q-20 -5 -41 -6.5t-32 -0.5h-11q-53 -1 -68 68q-5 16 -2 31t8.5 26.5
t14.5 21.5t16 16t13.5 11t7.5 6t12.5 11t26 26t24.5 33q12 21 34.5 33t52 4t52.5 -44q15 -23 39 -47.5t41 -38.5l16 -13l5 -4q2 -3 8.5 -13t9.5 -21.5t2 -30t-9 -38zM678 248q-25 2 -40 26t-11.5 55t23 51.5t44 18t39.5 -26.5t12 -55q-3 -20 -12.5 -37t-24 -25.5t-30.5 -6.5
zM587 114h-40q-1 0 -2.5 0.5t-4.5 3.5t-3 6v89h-25v-98q0 -3 1 -7.5t9.5 -11.5t21.5 -7h68v124h-25v-99zM462 255v-42h-35h-2q-1 0 -5 -1.5t-8 -3.5t-9.5 -5.5t-9.5 -8t-8.5 -12t-6.5 -15.5q-4 -11 -1.5 -25t3.5 -17t3 -8q2 -4 5.5 -9t14 -12t23.5 -7h61v165zM462 114h-26
h-2l-1 0.5t-2.5 1t-3.5 1.5t-3.5 2t-3.5 3l-4 4q-2 2 -3.5 5.5t-2.5 6.5q-3 12 2 28q8 22 22 22h28v-74z" />
    <glyph glyph-name="uniE626" unicode="&#xe626;" 
d="M729 374q1 -27 -2.5 -54t-11 -53t-19.5 -51t-28.5 -48t-36.5 -43t-44.5 -36t-51.5 -27.5t-59 -18t-66 -6.5q-47 0 -91 13t-82 38q93 -11 167 47q-37 0 -65.5 22t-39.5 56q5 -1 10.5 -1.5t10.5 -0.5t10 0.5t10 1.5l10 2q-41 8 -66.5 40.5t-24.5 71.5q24 -13 51 -14
q-37 25 -47 69t13 82q27 -34 63 -59.5t79 -40.5t89 -18q-3 12 -3 23.5t2 22.5t6 21.5t10 19.5t13.5 17.5t16.5 14.5t19.5 10.5t22 7t23.5 2.5q48 0 81 -36q38 8 72 28q-13 -41 -50 -63q34 4 65 18q-23 -34 -56 -58z" />
    <glyph glyph-name="uniE627" unicode="&#xe627;" 
d="M512 736q-122 0 -225 -60t-163 -163t-60 -225t60 -225t163 -163t225 -60t225 60t163 163t60 225t-60 225t-163 163t-225 60zM729 375q2 -48 -10.5 -96t-39.5 -91.5t-65 -76.5t-91 -53t-114 -20q-46 0 -90 13.5t-82 37.5q93 -11 167 47q-37 1 -65.5 22.5t-39.5 56.5
q6 -2 12.5 -2.5t13 0t12.5 1.5l12 2q-40 9 -65.5 41t-24.5 72q24 -14 51 -14q-37 25 -47 69t12 82q43 -53 103 -84t129 -34q-3 11 -3 23t2 23t6 21t10 19.5t13.5 17.5t16.5 14t19.5 11t21.5 7t23 2q49 0 82 -35q38 7 72 27q-13 -40 -50 -62q34 4 65 17q-23 -34 -56 -58z" />
    <glyph glyph-name="uniE628" unicode="&#xe628;" 
d="M431 81l-175 25v156h174zM430 287h-174v157l174 27v-184zM704 40l-249 36v186h249v-222zM704 287h-249v188l249 35v-223z" />
    <glyph glyph-name="uniE629" unicode="&#xe629;" 
d="M512 736q-122 0 -225 -60t-163 -163t-60 -225t60 -225t163 -163t225 -60t225 60t163 163t60 225t-60 225t-163 163t-225 60zM431 83l-175 24v156h174zM430 288h-174v158l174 26v-184zM704 42l-249 35v186h249v-221zM704 288h-249v188l249 35v-223z" />
    <glyph glyph-name="uniE62A" unicode="&#xe62a;" 
d="M637 461h-58q-6 0 -9 -0.5t-5 -1.5t-2.5 -3.5t-0.5 -4.5v-7v-10v-48h75l-14 -99h-61v-274h-124v274h-75v99h75v69q0 26 7.5 46t23.5 33t39 20t54 7h75v-100z" />
    <glyph glyph-name="uniE62B" unicode="&#xe62b;" 
d="M512 736q-122 0 -225 -60t-163 -163t-60 -225t60 -225t163 -163t225 -60t225 60t163 163t60 225t-60 225t-163 163t-225 60zM636 462h-57q-6 0 -9 -0.5t-5 -1t-2.5 -3.5t-1 -4.5t0 -7.5t0.5 -10v-47h74l-13 -100h-61v-274h-125v274h-74v100h74v69q0 105 125 105h74v-100z
" />
    <glyph glyph-name="uniE62C" unicode="&#xe62c;" 
d="M786 424h-75v-74h-25v74h-74v25h74v75h25v-75h75v-25zM522 243q-26 19 -36 31.5t-5.5 27t27.5 31.5q19 15 31.5 41.5t12.5 51.5q0 13 -3 24.5t-7 18.5t-14.5 24.5t-17.5 30.5h39l34 25h-150q-66 0 -103 -37.5t-37 -88.5q0 -49 33.5 -82.5t94.5 -33.5q-10 -19 -6.5 -38
t20.5 -32q-42 0 -74 -7t-51 -18t-30.5 -26.5t-16 -30t-4.5 -30.5q0 -45 46 -72.5t114 -27.5q83 0 125 34.5t42 79.5q0 31 -14 54.5t-50 49.5zM349 416q-5 39 13 65.5t48 25.5q30 0 53.5 -28.5t28.5 -68.5q5 -39 -10.5 -62.5t-46.5 -22.5q-45 2 -71 47q-11 21 -15 44zM420 52
q-45 0 -74.5 24.5t-29.5 58.5t33 58.5t78 24.5q48 0 77.5 -25.5t29.5 -59.5q0 -36 -29.5 -58.5t-84.5 -22.5z" />
    <glyph glyph-name="uniE62D" unicode="&#xe62d;" 
d="M427 218q-45 0 -78 -24.5t-33 -58.5t29.5 -58.5t73.5 -24.5q38 0 64 11t38.5 29t12.5 41q0 46 -47 71q-26 14 -60 14zM492 410q-5 40 -28.5 68.5t-53.5 28.5q-31 1 -48.5 -25.5t-12.5 -65.5q4 -26 16.5 -46.5t31 -32t38.5 -12.5q15 0 27 6t19.5 17t10.5 27t0 35zM512 748
q-122 0 -225 -60t-163 -163t-60 -225t60 -225t163 -163t225 -60t225 60t163 163t60 225t-60 225t-163 163t-225 60zM419 25q-68 0 -114 27.5t-46 72.5q0 21 7.5 39t25.5 35.5t54.5 27.5t87.5 10q-34 28 -13 70q-61 0 -94.5 33.5t-33.5 82.5q0 32 14.5 60t47.5 47t78 19h150
l-34 -25h-39q7 -13 17.5 -30.5t14.5 -24.5t7 -18.5t3 -24.5q0 -16 -5.5 -33.5t-15.5 -33.5t-23 -26q-23 -17 -27.5 -31.5t5.5 -27t36 -31.5q36 -26 50 -49.5t14 -54.5q0 -21 -10 -40t-29 -36t-52 -27.5t-76 -10.5zM786 424h-75v-74h-25v74h-74v25h74v75h25v-75h75v-25z" />
    <glyph glyph-name="uniE62E" unicode="&#xe62e;" 
d="M313 524h398v-50h-398v50zM736 76h-448v50h122q-18 37 -47 81l47 18q1 -2 6 -9t6 -9t5.5 -9t6 -10t5 -9.5t5.5 -11.5t5 -12t5.5 -14t5.5 -15h88q21 29 47 99l51 -19q-16 -35 -43 -80h133v-50zM338 424v-199h348v199h-348zM636 275h-248v100h248v-100z" />
    <glyph glyph-name="uniE62F" unicode="&#xe62f;" 
d="M388 375h248v-100h-248v100zM512 748q-122 0 -225 -60t-163 -163t-60 -225t60 -225t163 -163t225 -60t225 60t163 163t60 225t-60 225t-163 163t-225 60zM313 524h398v-50h-398v50zM686 424v-199h-348v199h348zM736 76h-448v50h122q-18 37 -47 81l47 18q1 -2 6 -9t6 -9
t5.5 -9t6 -10t5 -9.5t5.5 -11.5t5 -12t5.5 -14t5.5 -15h88q21 29 47 99l51 -19q-16 -35 -43 -80h133v-50z" />
    <glyph glyph-name="uniE630" unicode="&#xe630;" 
d="M720 161q-15 -5 -36 35q-15 -40 -47 -68q8 -2 15 -5t12.5 -6.5t9.5 -7.5t6 -8.5t2 -9.5q0 -17 -24 -29t-59 -12q-18 0 -34.5 4t-28.5 10.5t-17 15.5h-8h-9q-7 -13 -29.5 -21.5t-50.5 -8.5q-34 0 -58.5 12t-24.5 29q0 12 12.5 22t33.5 15q-16 14 -28 32t-19 38
q-21 -39 -36 -34q-11 4 -14 34.5t8 62.5q4 11 9 22t11 21.5t12 18.5q0 14 4.5 27t7.5 18t5 8v14q0 30 8 58t23.5 50.5t36 39t45.5 26t52 9.5q45 0 83 -24.5t60.5 -66.5t22.5 -92q0 -8 -1 -17q18 -26 18 -50q20 -28 34 -64q4 -13 6.5 -26.5t2 -25.5t-2.5 -21.5t-5.5 -16
t-7.5 -8.5z" />
    <glyph glyph-name="uniE631" unicode="&#xe631;" 
d="M512 748q-91 0 -174 -35.5t-143 -95.5t-95.5 -143t-35.5 -174t35.5 -174t95.5 -143t143 -95.5t174 -35.5q73 0 141.5 22.5t123.5 64t96.5 96.5t64 123.5t22.5 141.5q0 91 -35.5 174t-95.5 143t-143 95.5t-174 35.5zM720 161q-15 -5 -36 35q-15 -40 -47 -68q8 -2 15 -5
t12.5 -6.5t9.5 -7.5t6 -8.5t2 -9.5q0 -17 -24 -29t-59 -12q-18 0 -35 4t-28.5 10.5t-16.5 15.5h-8h-9q-8 -13 -30 -21.5t-50 -8.5q-34 0 -58.5 12t-24.5 29q0 12 12.5 22t33.5 15q-16 14 -28 32t-19 38q-21 -39 -36 -34q-11 4 -14 34.5t8 62.5q2 7 5 13l6 14q3 6 7 12l6 12
q4 6 8 11q0 11 2.5 21t6 16.5t5.5 10t3 5.5v5q-1 6 -1 9q0 30 8.5 58t24 50.5t35.5 39t45.5 26t52.5 9.5q69 0 117.5 -53.5t48.5 -129.5q0 -8 -1 -17q18 -26 18 -50q20 -28 33 -64q12 -33 8.5 -63.5t-14.5 -34.5z" />
    <glyph glyph-name="uniE632" unicode="&#xe632;" 
d="M635 504q-2 7 -3.5 15t-0.5 13v5q-2 21 -19 30t-33 7l-16 -2q43 -17 11 -39q-10 3 -19 5q-81 19 -152 -14.5t-86 -97.5q-7 -28 -1.5 -55.5t20.5 -51t40 -43t56 -32.5q5 -19 -21 -21q0 -1 -2.5 -0.5t-7 0t-9.5 -1.5t-10.5 -3t-9.5 -5q-2 -1 -6 -4.5t-11 -15.5t-9 -28
q-2 -19 11 -21q13 -3 16 15v1t1 3v4q1 2 2 5l2 4q1 3 2.5 5t3.5 3q3 1 6.5 2.5t11.5 -0.5t11 -10q5 -11 -7 -32v-1l-2 -2q0 -1 -1 -2t-2 -2.5t-3 -3.5l-4 -4l-4 -5l-6 -5l-4 -3q-2 -3 -2 -11t9 -15q0 -1 1.5 -2t5.5 -2.5t8 -1.5t10 3.5t12 10.5q16 21 22 50l2 8
q2 4 7.5 10.5t12.5 4.5q3 0 6.5 -0.5t8.5 -7t4 -17.5q0 -3 -1 -7t-6.5 -15t-13.5 -20l-14 -14l-8 -11q-3 -14 9 -24q1 -1 2.5 -2t6 -2t9 0t11 6.5t11.5 14.5q2 2 4 5.5t6.5 16.5t6.5 27q1 1 1.5 3.5t4 10t7.5 10.5t11 5.5t15 -4.5q3 -1 6 -4.5t4 -14.5t-10 -24l-11 -13
q-10 -17 6 -27l2 -1q1 -1 5.5 -1.5t8.5 0.5t9.5 6.5t10.5 14.5q2 3 5 9t7 24t1 35v1q0 1 -1 4l-2 6q-1 3 -3.5 7t-6 7t-8 6.5t-10.5 5.5q-1 1 -3.5 2t-7.5 5.5t-8 9t-3 11t5 12.5q60 5 105.5 38.5t57.5 81.5q10 46 -9.5 87t-63.5 70zM447 476q2 1 5.5 3t14 6.5t20.5 6.5
t24.5 3t27.5 -4q41 -12 65 -63q1 -2 0.5 -4.5t-2 -4.5t-3.5 -3t-4 -1t-3.5 0.5t-2.5 2t-2 2.5q-10 22 -23.5 35.5t-29.5 18.5q-16 6 -37 1t-29 -8.5t-11 -6.5q-4 -2 -7.5 -1t-5.5 4q-5 8 3 13zM566 287q-17 -2 -32.5 -1.5t-29.5 3t-26 6t-22 8.5t-18.5 10t-14.5 10t-10 9
l-6 6l-3 2q-14 14 -18.5 30.5t-2.5 25.5l3 9q5 11 20.5 12.5t28.5 -2.5l13 -4q35 -10 67.5 -17.5t48.5 -9.5l15 -2q19 -1 30 -13t13 -24q1 -8 0 -14.5t-4 -11.5t-7.5 -9.5t-9 -8t-9.5 -6t-9.5 -4t-8.5 -2.5t-6 -1z" />
    <glyph glyph-name="uniE633" unicode="&#xe633;" 
d="M578 382q-51 5 -130 29q-2 1 -5.5 2t-13 3t-17.5 2t-15.5 -3t-10.5 -10q-2 -3 -3.5 -9.5t3 -24t18.5 -31.5q2 -1 4 -3.5t10 -9.5t17 -12.5t23.5 -13t30 -10.5t36 -5.5t41.5 1.5q1 1 3.5 1.5t9 2.5t12 4.5t12 7t11.5 10.5t7 14t1 18q-2 7 -6 14.5t-14 14.5t-24 8zM457 460
q3 3 11 6.5t28.5 8.5t36.5 -1q34 -10 54 -54q2 -5 8 -5q2 0 4 1t3.5 3t1.5 4.5t-1 4.5q-23 51 -65 63q-9 3 -19 3.5t-18.5 -0.5t-17 -3t-14.5 -4.5t-11.5 -5t-7.5 -4t-3 -1.5q-4 -3 -4.5 -6.5t1.5 -6.5q5 -8 13 -3zM512 748q-122 0 -225 -60t-163 -163t-60 -225t60 -225
t163 -163t225 -60t225 60t163 163t60 225t-60 225t-163 163t-225 60zM707 347q-7 -32 -30.5 -58t-58 -42t-73.5 -20q-8 -11 -4 -20t12 -14l9 -6q12 -4 20 -13.5t10 -16.5l1 -7q2 -12 1 -22t-3.5 -18.5t-5 -14.5t-4.5 -9l-2 -4q-4 -9 -9.5 -14t-9.5 -6.5t-8.5 -1t-6 1.5
t-2.5 1q-7 5 -8 11.5t1 11.5l2 4l11 14q11 12 11 23t-6 15l-5 5q-14 8 -22.5 0t-12.5 -16t-4 -10q-1 -7 -2.5 -13t-3 -10.5t-3.5 -9t-3 -7t-2.5 -5t-1.5 -3.5l-1 -1q-5 -9 -11.5 -14.5t-11.5 -6t-9 0t-6 1.5l-2 2q-10 7 -10.5 16t4.5 14l4 5l15 15q19 18 21 41
q1 11 -3.5 17.5t-9.5 7.5h-6q-4 1 -8 -1t-6.5 -5.5t-4.5 -7.5t-2 -6l-1 -3q-3 -13 -8.5 -25.5t-9.5 -18.5l-4 -6q-9 -12 -18.5 -13.5t-14.5 1.5l-4 4q-4 3 -6.5 6.5t-3 6.5t0 5.5t1.5 4.5t2.5 3.5t1.5 2.5h1l6 5l4 5q2 2 3.5 4t2.5 3l3 3q1 1 1 2l2 2v1q5 10 6.5 17.5
t1.5 11.5l-1 3q-3 8 -10.5 10t-12.5 0l-6 -2q-9 -6 -11 -25q-1 -8 -5 -11.5t-8 -3.5h-3q-6 1 -9 6t-3 10l1 5q2 16 8.5 28t12.5 16l5 4q6 5 16 7t16 3h7q14 1 18.5 7t2.5 14q-64 26 -96.5 76t-18.5 106q15 64 86 97.5t151 14.5q10 -2 19 -5q33 22 -10 39q63 13 68 -35
q0 -1 -0.5 -5t0.5 -12.5t4 -15.5q44 -29 63.5 -70t8.5 -87z" />
    <glyph glyph-name="uniE634" unicode="&#xe634;" 
d="M313 225q-31 0 -53 22t-22 53q0 15 6 29t16 24t24 15.5t29 5.5q31 0 53 -21.5t22 -52.5q0 -44 -39 -65q-17 -9 -36 -10zM512 225q-31 0 -53 22t-22 53t22 52.5t53 21.5t53 -21.5t22 -52.5q0 -20 -10 -37.5t-27.5 -27.5t-37.5 -10zM712 225q-31 0 -53 22t-22 53q0 15 6 29
t16 24t23.5 15.5t29.5 5.5q31 0 52.5 -21.5t21.5 -52.5q0 -44 -38 -65q-17 -9 -36 -10z" />
    <glyph glyph-name="uniE635" unicode="&#xe635;" 
d="M512 748q-91 0 -174 -35.5t-143 -95.5t-95.5 -143t-35.5 -174t35.5 -174t95.5 -143t143 -95.5t174 -35.5q73 0 141.5 22.5t123.5 64t96.5 96.5t64 123.5t22.5 141.5q0 91 -35.5 174t-95.5 143t-143 95.5t-174 35.5zM313 225q-31 0 -53 22t-22 53t22 52.5t53 21.5
t53 -21.5t22 -52.5q-1 -20 -11 -37.5t-27 -27.5t-37 -10zM512 225q-31 0 -53 22t-22 53q0 20 10 37.5t27.5 27t37.5 9.5q31 0 53 -21.5t22 -52.5q0 -20 -10 -37.5t-27.5 -27.5t-37.5 -10zM712 225q-31 0 -53 22t-22 53q0 15 6 29t16 24t23.5 15.5t29.5 5.5q30 0 52 -21.5
t22 -52.5q0 -12 -3.5 -23.5t-10.5 -20.5t-16.5 -16t-20.5 -11t-23 -4z" />
    <glyph glyph-name="uniE636" unicode="&#xe636;" 
d="M702 366q-1 -12 -13 -13q-6 -1 -10.5 3t-5.5 10q0 1 0.5 3t0 8t-2 10.5t-5 10.5t-9.5 8.5t-15.5 5t-23.5 -1.5q-6 -1 -10.5 3t-5.5 9q-1 14 13 16q4 0 10 0.5t21.5 -1.5t27 -8t20.5 -21.5t8 -39.5v-2zM782 350h-1q-4 -14 -18 -15q-9 -1 -15.5 4t-7.5 14q0 4 0.5 9.5
t1.5 8.5v3q2 7 2.5 12t-2.5 22t-13 33q-37 49 -109 41l-18 -7q-9 0 -15.5 5t-7.5 14q-2 15 13 21h1l1 1h1q31 9 71 4q19 -2 36.5 -8.5t36 -19t29 -31.5t16.5 -46.5t-2 -64.5zM636 284q-9 2 -11.5 6t-0.5 7l1 3q3 4 5.5 11t2 23t-11.5 28q-17 14 -40 13t-43 -9l-21 -8
q-6 -2 -10 -3t-6 0t-3.5 2t-1 4.5t1 6t1.5 8t1 9.5q0 6 -0.5 12t-2.5 13t-5.5 12.5t-10 10t-15 6t-21.5 -0.5t-28 -8q-21 -7 -43.5 -22.5t-39 -32t-30 -32t-20.5 -25.5l-7 -10q-20 -28 -29.5 -56t-9.5 -42v-13q0 -38 18.5 -67t49 -45.5t65.5 -24.5t71 -8q48 1 95 11.5
t90 37.5t60 65q11 31 10 52t-14 36t-25 21.5t-22 8.5zM448.5 93q-66.5 0 -113.5 33t-46 79q0 31 21.5 57t59 41t80.5 16q67 0 114 -33t46.5 -79.5t-48 -80t-114 -33.5zM521 206q-4 19 -19 33t-37 19.5t-45 1.5q-36 -6 -56.5 -30.5t-14.5 -53.5q5 -19 20 -33t37 -19.5
t45 -1.5q36 6 56.5 30.5t13.5 53.5zM407 148q-14 -1 -25 6.5t-11.5 19t8.5 20.5t24 10q9 1 17 -2t13.5 -9.5t5.5 -13.5q1 -4 0 -7t-2.5 -6t-3.5 -5.5t-5 -5t-6 -4t-7 -2.5t-8 -1zM453 195q-6 -2 -11 0.5t-7 7.5t0.5 10.5t7.5 7.5q4 1 7.5 0.5t6 -2.5t3.5 -6q2 -3 1.5 -6.5
t-3 -6.5t-5.5 -5z" />
    <glyph glyph-name="uniE637" unicode="&#xe637;" 
d="M512 748q-91 0 -174 -35.5t-143 -95.5t-95.5 -143t-35.5 -174t35.5 -174t95.5 -143t143 -95.5t174 -35.5q73 0 141.5 22.5t123.5 64t96.5 96.5t64 123.5t22.5 141.5q0 91 -35.5 174t-95.5 143t-143 95.5t-174 35.5zM687 166q-35 -78 -162 -105q-42 -8 -83 -9
q-50 0 -94.5 13.5t-77 47.5t-32.5 84v15q0 10 9.5 39t29.5 57q3 4 7.5 10.5t20 24.5t31 33t38 31t43.5 23q83 31 83 -45q-5 -18 -3.5 -25.5t20.5 -1.5q3 1 8.5 3.5t19.5 7t26.5 6t27 -1t22.5 -11.5q11 -12 12 -27t-3 -25l-5 -10l-1 -1q0 -1 -0.5 -3t0 -4t3.5 -4.5t9 -3.5
q10 -2 22 -8.5t25 -21.5t14 -36t-10 -52zM702 366q-1 -12 -13 -13q-6 -1 -10.5 3t-5.5 10q0 1 0.5 3t0 8t-2 10.5t-5 10.5t-9.5 8.5t-15.5 5t-23.5 -1.5q-6 -1 -10.5 3t-5.5 9q-1 14 13 16q4 0 10 0.5t21.5 -1.5t27 -8t20.5 -21.5t8 -39.5v-2zM782 350h-1q-4 -14 -18 -15
q-9 -1 -15.5 4t-7.5 14q0 4 0.5 9.5t1.5 8.5v3q2 7 2.5 12t-2.5 22t-13 33q-37 49 -109 41l-18 -7q-9 0 -15.5 5t-7.5 14q-2 15 13 21h1l1 1h1q31 9 71 4q19 -2 36.5 -8.5t36 -19t29 -31.5t16.5 -46.5t-2 -64.5zM450 319q-86 -1 -134 -51q-27 -28 -27 -63q-1 -46 46 -79
t114 -33q43 0 80.5 15.5t59 41.5t21.5 56q1 47 -46 80t-114 33zM451 122q-36 -6 -65.5 9.5t-36.5 44.5q-4 19 4 37t25.5 30.5t41.5 16.5q14 2 27.5 1t26 -5.5t22 -11.5t16.5 -17t9 -21q5 -19 -3 -37t-26 -30.5t-41 -16.5zM402.5 204q-14.5 -1 -23.5 -10t-8.5 -20.5t11.5 -19
t25 -6.5t23.5 10t8.5 20.5t-11.5 19t-25 6.5zM443.5 221q-12.5 -5 -8 -18t17.5 -8q5 3 7 8t0 10q-4 13 -16.5 8z" />
    <glyph glyph-name="uniE638" unicode="&#xe638;" 
d="M324 -106l96 239q-46 25 -73 69.5t-27 97.5q0 80 56 136t136 56t136 -56t56 -136q0 -53 -27 -97.5t-73 -69.5l96 -239q117 54 188.5 163.5t71.5 242.5q0 122 -60 225t-163 163t-225 60t-225 -60t-163 -163t-60 -225q0 -133 71.5 -242.5t188.5 -163.5z" />
    <glyph glyph-name="uniE639" unicode="&#xe639;" 
d="M512 748q-122 0 -225 -60t-163 -163t-60 -225t60 -225t163 -163t225 -60t225 60t163 163t60 225t-60 225t-163 163t-225 60zM698 76h-512v24q0 15 8.5 28t22.5 21t31.5 15.5t36 13.5t36 13.5t31.5 15.5t22.5 20t8.5 27v12v13q-30 33 -40 73q-13 6 -20 25q-13 33 6 55
q0 1 -1 1q-8 78 26 116q10 11 23 19t29.5 13.5t35.5 6.5q53 -2 87 -39q35 -38 26 -116v-1q18 -22 6 -55q-2 -3 -3 -6t-2.5 -5.5t-3.5 -4.5t-4 -3l-4 -4l-4 -2q-4 -17 -12.5 -33t-14.5 -24.5t-13 -15.5v-25q0 -23 20.5 -39.5t49.5 -26.5l58 -20q29 -10 49.5 -27t20.5 -41v-24
zM746 123q-5 20 -17 36t-33 27.5t-35 17.5t-39 15q-8 2 -12 4q5 5 7.5 10.5t2.5 12.5v5v6v6q-4 5 -8.5 11t-10 17t-8.5 22q0 1 -1 1q-9 5 -13 17q-4 8 -3 19.5t7 18.5v1q-4 8 -1 35.5t18 43.5q6 6 14 12q21 15 47 15q13 0 24.5 -4t20 -9.5t16.5 -13.5q23 -25 17 -79v-1
q13 -15 4 -38q-2 -7 -6 -11t-8 -7q-7 -27 -27 -50q0 -4 -0.5 -6t-0.5 -5v-6q0 -14 10.5 -24t25.5 -16t32.5 -12.5t33 -12.5t25.5 -16.5t10 -25.5v-16h-92z" />
    <glyph glyph-name="uniE63A" unicode="&#xe63a;" 
d="M512 748q-122 0 -225 -60t-163 -163t-60 -225t60 -225t163 -163t225 -60t225 60t163 163t60 225t-60 225t-163 163t-225 60zM129 300h79q0 75 40.5 144.5t112 114t152.5 44.5q126 0 216 -91l-69 -70q-63 63 -147 63q-87 0 -147 -58t-60 -147h81l-129 -129zM815 300
q0 -56 -24 -110.5t-64.5 -97t-98 -69t-118.5 -26.5q-125 0 -216 91l69 70q63 -63 147 -63q87 0 147 58t60 147h-80l129 131l130 -130v-1h-81z" />
    <glyph glyph-name="uniE63B" unicode="&#xe63b;" 
d="M885 492h-426q-15 0 -29 -6t-24 -16t-16 -24t-6 -29v-298q0 -31 22 -53t53 -22h426q21 0 38 10t27 27t10 38v298q0 31 -22 53t-53 22zM861 428l-197 -189l-202 189h399zM885 108h-426q-2 0 -4 1t-3.5 2.5t-2.5 3.5t-1 4v234l172 -161q6 -5 12.5 -9t14 -5.5t14.5 -1.5
q25 0 42 16l193 181v-254q0 -3 -1.5 -5.5t-4 -4t-5.5 -1.5zM289 492h-225q-13 0 -22.5 -9.5t-9.5 -22.5t9.5 -22.5t22.5 -9.5h225q13 0 22.5 9.5t9.5 22.5t-9.5 22.5t-22.5 9.5zM289 364h-169q-6 0 -12 -2.5t-10.5 -7t-7 -10t-2.5 -12.5q0 -13 9.5 -22.5t22.5 -9.5h169
q13 0 22.5 9.5t9.5 22.5t-9.5 22.5t-22.5 9.5zM289 236h-112q-9 0 -16.5 -4.5t-11.5 -11.5t-4 -16t4 -16t11.5 -11.5t16.5 -4.5h112q13 0 22.5 9.5t9.5 22.5t-9.5 22.5t-22.5 9.5z" />
    <glyph glyph-name="uniE63C" unicode="&#xe63c;" 
d="M921 263q-84 64 -173 101q-28 -24 -57.5 -41.5t-59 -29t-60 -17t-61.5 -5.5q-9 0 -16 1q-117 6 -217 90q-107 -42 -175 -100q-11 -9 -12 -23.5t8 -25.5q4 -5 10.5 -8t13 -3.5t13 1.5t12.5 6q50 41 119 73v-9q0 -72 26 -135q-31 -34 -60.5 -77.5t-39.5 -62.5l-15 -31
q-6 -13 -1 -26.5t18 -19.5q7 -3 15 -3q22 0 31 20q4 7 11.5 22t30 50.5t46.5 63.5q35 -47 83 -73.5t102 -26.5t101.5 26.5t81.5 72.5q49 -55 98 -138q8 -13 22 -16.5t26 4t16 21.5t-4 26q-59 101 -122 166q28 64 28 137v10q20 -10 40 -21.5t39.5 -25t39.5 -28.5q4 -3 9.5 -5
t11.5 -2q8 0 15 3.5t12 10.5q9 11 7 25t-13 23zM312 446q3 -4 10 -10.5t29.5 -23t46.5 -28.5t61 -19.5t74.5 -4t85 25.5t94.5 62q72 68 141 186q7 12 3.5 26t-15.5 21q-4 2 -7.5 3t-7.5 1.5t-7.5 0t-7.5 -2t-7 -3.5t-6 -5t-5 -6q-62 -106 -124 -166q-68 68 -157 68
q-90 0 -159 -70q-31 31 -60.5 74.5t-38.5 61t-15 28.5q-6 13 -19 18.5t-26.5 -0.5t-18.5 -19.5t1 -26.5l7 -15q5 -9 18 -32t27.5 -44.5t36.5 -49.5t46 -50z" />
    <glyph glyph-name="uniE63D" unicode="&#xe63d;" 
d="M832 364h-256v256q0 26 -19 45t-45 19t-45 -19t-19 -45v-256h-256q-26 0 -45 -19t-19 -45t19 -45t45 -19h256v-256q0 -27 18.5 -45.5t45.5 -18.5t45.5 18.5t18.5 45.5v256h256q27 0 45.5 18.5t18.5 45.5t-18.5 45.5t-45.5 18.5z" />
    <glyph glyph-name="uniE63E" unicode="&#xe63e;" 
d="M672 684q-13 0 -22.5 9.5t-9.5 22.5t-9.5 22.5t-22.5 9.5h-192q-13 0 -22.5 -9.5t-9.5 -22.5t-9.5 -22.5t-22.5 -9.5h-192q-13 0 -22.5 -9.5t-9.5 -22.5t9.5 -22.5t22.5 -9.5h704q13 0 22.5 9.5t9.5 22.5t-9.5 22.5t-22.5 9.5h-192zM256 -148h512q26 0 45 19t19 45v576
q0 26 -19 45t-45 19h-512q-26 0 -45 -19t-19 -45v-576q0 -26 19 -45t45 -19zM703 492h2q26 0 44.5 -18.5t18.5 -44.5v-450q0 -6 -1.5 -12.5t-3.5 -12t-5.5 -10.5t-8 -9.5t-9.5 -8t-10.5 -5.5t-12 -3.5t-12.5 -1.5h-2q-38 0 -56 34q-7 14 -7 29v450q0 26 18.5 44.5t44.5 18.5
zM511 492h2q26 0 44.5 -18.5t18.5 -44.5v-450q0 -26 -18.5 -44.5t-44.5 -18.5h-2q-26 0 -44.5 18.5t-18.5 44.5v450q0 26 18.5 44.5t44.5 18.5zM319 492h2q26 0 44.5 -18.5t18.5 -44.5v-450q0 -26 -18.5 -44.5t-44.5 -18.5h-2q-26 0 -44.5 18.5t-18.5 44.5v450
q0 26 18.5 44.5t44.5 18.5z" />
    <glyph glyph-name="uniE63F" unicode="&#xe63f;" 
d="M618 558l157 -157l-367 -367l-157 157zM134 -55l65 194l157 -157l-194 -65q-6 -2 -12 -0.5t-10 6t-6 10.5t0 12zM827 453l-157 157l52 52q6 6 12 10t12.5 6.5t14 4t14.5 1.5t14 -1.5t13.5 -4t13 -6.5t11.5 -10l52 -52q6 -5 10 -11.5t6.5 -13t4 -13.5t1.5 -14t-1.5 -14.5
t-4 -14t-6.5 -12.5t-10 -12z" />
    <glyph glyph-name="uniE640" unicode="&#xe640;" 
d="M602 300l211 211q19 19 19 45t-19 45q-9 9 -21 14t-24 5t-24 -5t-21 -14l-211 -211l-211 211q-19 19 -45 19t-45 -19q-13 -12 -17 -28.5t0 -33t17 -28.5l211 -211l-211 -211q-19 -19 -19 -45t19 -45t45 -19q4 0 8 0.5t8 1.5t8 2.5t7.5 3.5t7 5t6.5 6l211 211l211 -211
q19 -19 45 -19t45 19t19 45t-19 45z" />
    <glyph glyph-name="uniE641" unicode="&#xe641;" 
d="M382 -20h-2q-13 0 -25 5.5t-21 15.5l-251 278q-11 13 -14.5 29.5t1.5 33t18 27.5q20 18 46.5 16.5t43.5 -20.5l207 -228l471 465q19 18 45.5 18t45 -19t18.5 -45.5t-19 -45.5l-519 -512q-19 -18 -45 -18z" />
    <glyph glyph-name="uniE642" unicode="&#xe642;" 
d="M251 173q0 65 9 116.5t23 80.5t29 44t29 15h-64q-147 0 -147 -256t147 -256h64q-14 0 -29 15t-29 44.5t-23 81t-9 115.5zM827 406q-17 5 -71 10t-81 13l41 45q115 144 70 223q-1 3 -3 5q-1 2 -3 5.5t-9.5 9.5t-15.5 7t-19.5 -6t-22.5 -25l-48 -61q-129 -151 -279 -242
q-30 -18 -46.5 -79t-16.5 -138q0 -51 6.5 -95t21.5 -77t36 -41q96 -37 320 -41q11 1 25.5 0t33.5 7.5t31 26.5q66 100 96 348q0 2 0.5 5t0 12t-2 17.5t-6 20t-11 20.5t-19 17.5t-28.5 12.5z" />
  </font>
</defs>
</svg>
